# xmcd CD database file
#
# Track frame offsets:
#	150
#	17861
#	42979
#	63269
#	79894
#
# Disc length: 1299 seconds
#
# Revision: 0
# Processed by: cddbd v1.5PL3 Copyright (c) Steve Scherf et al.
# Submitted via: CDex 1.51
#
DISCID=39051105
DTITLE=Kylae Jordan - Jordan
DYEAR=2001
DGENRE=Jazz
TTITLE0=Harry Potter (Instrumental)
TTITLE1=You're Up
TTITLE2=PCH
TTITLE3=You've Gotta Be...
TTITLE4=Harry Potter Theme
EXTD=YEAR: 2001
EXTT0=
EXTT1=
EXTT2=
EXTT3=
EXTT4=
PLAYORDER=
